Coordinates
version=1
nRows=16
nColumns=22
inDegrees=yes

Units are S.I. units (second, meters, Newtons, ...)
If the header above contains a line with 'inDegrees', this indicates whether rotational values are in degrees (yes) or radians (no).

endheader
time	pelvis_tilt	pelvis_list	pelvis_rotation	pelvis_tx	pelvis_ty	pelvis_tz	hip_flexion_r	hip_adduction_r	hip_rotation_r	knee_angle_r	ankle_angle_r	subtalar_angle_r	hip_flexion_l	hip_adduction_l	hip_rotation_l	knee_angle_l	ankle_angle_l	subtalar_angle_l	lumbar_extension	lumbar_bending	lumbar_rotation
      0.99000000	      7.47940326	     -6.50379398	     44.37271946	     -0.15893724	      0.92962345	      0.55353213	      9.86644810	      9.11809409	     -3.73453004	    -18.68403307	      7.45099240	      7.12008060	     20.27191112	     -9.27053772	      3.70820437	    -73.44183084	    -11.48844913	     -5.16248271	    -11.37541855	      6.71987348	     -6.63694974
      1.00000000	      7.64746903	     -6.18934613	     44.68001651	     -0.15277876	      0.93086204	      0.54893047	      8.70443202	      9.12170008	     -3.79223690	    -18.18130754	      7.69060018	      6.81189517	     21.23962778	     -8.78039369	      3.65663039	    -73.39251176	     -9.78171119	     -5.30412328	    -11.76539984	      6.57469651	     -5.87224987
      1.01000000	      7.81391858	     -5.85972832	     44.96724754	     -0.14667448	      0.93206004	      0.54425435	      7.51104831	      9.11165636	     -3.84618234	    -17.64318796	      7.92989765	      6.53397289	     22.10679909	     -8.25436216	      3.63159384	    -73.06912215	     -8.13340888	     -5.38352315	    -12.14341657	      6.41474607	     -5.09272713
      1.02000000	      7.97169577	     -5.53500601	     45.23277124	     -0.14061502	      0.93316269	      0.53950791	      6.31644986	      9.09408687	     -3.91996982	    -17.08829821	      8.16851366	      6.30266517	     22.90034848	     -7.72336532	      3.61942510	    -72.49077309	     -6.56395470	     -5.35696853	    -12.48571915	      6.25282743	     -4.29494964
      1.03000000	      8.11711319	     -5.22653575	     45.47404825	     -0.13459072	      0.93414901	      0.53473627	      5.14077253	      9.07882039	     -4.00478147	    -16.52763591	      8.40403183	      6.11044079	     23.63466676	     -7.20946570	      3.61488854	    -71.66563816	     -5.09043563	     -5.21743796	    -12.78889139	      6.08867661	     -3.48047477
      1.04000000	      8.24335032	     -4.93195564	     45.69354000	     -0.12859580	      0.93500572	      0.52992582	      3.98412921	      9.05847377	     -4.09041849	    -15.95894886	      8.62821318	      5.93159373	     24.31827229	     -6.72971588	      3.59032206	    -70.60734110	     -3.73585381	     -4.97170747	    -13.05003284	      5.91822801	     -2.65881824
      1.05000000	      8.34487838	     -4.67842628	     45.89387180	     -0.12263078	      0.93567267	      0.52512208	      2.90477420	      9.05095554	     -4.18887567	    -15.43820925	      8.85868576	      5.77857756	     24.98488868	     -6.31068960	      3.55070667	    -69.33537483	     -2.49191135	     -4.65688786	    -13.25051178	      5.75267862	     -1.80516711
      1.06000000	      8.41433491	     -4.44306253	     46.07319265	     -0.11668241	      0.93620104	      0.52030240	      1.86167439	      9.03770067	     -4.25684862	    -14.91243590	      9.08026550	      5.59954778	     25.60730122	     -5.93834601	      3.48037733	    -67.83593954	     -1.39324534	     -4.28878582	    -13.40895080	      5.57082287	     -0.96896738
      1.07000000	      8.45245138	     -4.25540871	     46.23583448	     -0.11074596	      0.93651841	      0.51548354	      0.91399768	      9.03751510	     -4.33876088	    -14.45010657	      9.32159840	      5.41817234	     26.22313333	     -5.65571871	      3.36219843	    -66.14205202	     -0.41824590	     -3.96200982	    -13.50181936	      5.39320993	     -0.11379232
      1.08000000	      8.45670039	     -4.11133331	     46.38642949	     -0.10482401	      0.93663870	      0.51064639	      0.05219831	      9.04566742	     -4.41768006	    -14.03606267	      9.57941364	      5.22497237	     26.82449305	     -5.45821503	      3.19097556	    -64.25297072	      0.43046387	     -3.72728326	    -13.53329899	      5.21712582	      0.73448896
      1.09000000	      8.43713771	     -3.99926741	     46.52948809	     -0.09890482	      0.93659061	      0.50576726	     -0.74607575	      9.06110022	     -4.48829871	    -13.66189983	      9.85570729	      5.00429965	     27.38783049	     -5.34673940	      2.95463078	    -62.16924015	      1.15993062	     -3.61097154	    -13.52105278	      5.04087902	      1.56281022
      1.10000000	      8.39638611	     -3.92517796	     46.66935038	     -0.09300361	      0.93635908	      0.50081931	     -1.47533500	      9.08558892	     -4.56023436	    -13.33506812	     10.16198569	      4.77707113	     27.91531171	     -5.32135917	      2.64829250	    -59.90072575	      1.79727997	     -3.63433043	    -13.46166251	      4.87582395	      2.36951348
      1.11000000	      8.34329406	     -3.88327833	     46.80304718	     -0.08713271	      0.93596117	      0.49579263	     -2.14950882	      9.11842289	     -4.63615910	    -13.04934224	     10.50484661	      4.55258883	     28.39002754	     -5.37444951	      2.26732270	    -57.44812740	      2.35565583	     -3.78077644	    -13.37228021	      4.72850346	      3.14184337
      1.12000000	      8.28424643	     -3.85166359	     46.96772665	     -0.08131164	      0.93543408	      0.49060437	     -2.82247081	      9.15307646	     -4.69096168	    -12.75029052	     10.83640661	      4.27459336	     28.78418569	     -5.45381737	      1.85969720	    -54.80846222	      2.84446928	     -4.11193197	    -13.26408338	      4.59112869	      3.83865504
      1.13000000	      8.22058417	     -3.85481807	     47.13270106	     -0.07551960	      0.93472188	      0.48529547	     -3.44375272	      9.19934489	     -4.75994139	    -12.50124467	     11.21255418	      4.05820793	     29.12389458	     -5.59565749	      1.37397666	    -52.01309290	      3.27744599	     -4.44738963	    -13.12198048	      4.48210401	      4.50425200
      1.14000000	      8.15473387	     -3.89058386	     47.30395630	     -0.06976298	      0.93382484	      0.47984420	     -4.02088604	      9.25637566	     -4.84780302	    -12.29576022	     11.62642486	      3.90266916	     29.41015702	     -5.78636022	      0.80658068	    -49.08244560	      3.65122867	     -4.70606209	    -12.94697552	      4.40462879	      5.12824510
